<?xml version="1.0" standalone="no"?><!DOCTYPE svg PUBLIC "-//W3C//DTD SVG 1.1//EN" "http://www.w3.org/Graphics/SVG/1.1/DTD/svg11.dtd">
<svg xmlns="http://www.w3.org/2000/svg" class="svg-icon icon" viewBox="0 0 20 20" aria-hidden="true"><path d="M4 1v3H1V1h3zm0 15v3H1v-3h3zm15 0v3h-3v-3h3zm0-15v3h-3V1h3zM2 4h1v12H2V4zm15 0h1v12h-1V4zM4 2h12v1H4V2zm0 15h12v1H4v-1zM13 9h-2a2 2 0 0 0-2 2v2H6.4A1.4 1.4 0 0 1 5 11.6V6.4A1.4 1.4 0 0 1 6.4 5h5.2A1.4 1.4 0 0 1 13 6.4V9zm-1 2h2a1 1 0 0 1 1 1v2a1 1 0 0 1-1 1h-2a1 1 0 0 1-1-1v-2a1 1 0 0 1 1-1z"></path></svg>