<?xml version="1.0" standalone="no"?><!DOCTYPE svg PUBLIC "-//W3C//DTD SVG 1.1//EN" "http://www.w3.org/Graphics/SVG/1.1/DTD/svg11.dtd">
<svg xmlns="http://www.w3.org/2000/svg" class="svg-icon icon" viewBox="0 0 20 20" aria-hidden="true"><path d="M5.4 1h9.2A1.4 1.4 0 0 1 16 2.4v16.2a1.4 1.4 0 0 1-1.4 1.4H5.4A1.4 1.4 0 0 1 4 18.6V2.4A1.4 1.4 0 0 1 5.4 1zm1.3 2a.7.7 0 0 0-.7.7v13.6a.7.7 0 0 0 .7.7h6.6a.7.7 0 0 0 .7-.7V3.7a.7.7 0 0 0-.7-.7H6.7zM2 5h1v2H2v7h1v2H1a1 1 0 0 1-1-1V6a1 1 0 0 1 1-1h1zm16 0h1a1 1 0 0 1 1 1v9a1 1 0 0 1-1 1h-2v-2h1V7h-1V5h1z"></path></svg>