<?xml version="1.0" standalone="no"?><!DOCTYPE svg PUBLIC "-//W3C//DTD SVG 1.1//EN" "http://www.w3.org/Graphics/SVG/1.1/DTD/svg11.dtd">
<svg xmlns="http://www.w3.org/2000/svg" class="svg-icon icon" viewBox="0 0 20 20" aria-hidden="true"><path d="M2 11a2 2 0 0 1 2-2h12a2 2 0 0 1 2 2v7a2 2 0 0 1-2 2H4a2 2 0 0 1-2-2v-7zm2 1v5a1 1 0 0 0 1 1h10a1 1 0 0 0 1-1v-5a1 1 0 0 0-1-1H5a1 1 0 0 0-1 1z" fill-rule="nonzero"></path><path d="M10 16a2 2 0 1 0 0-4 2 2 0 0 0 0 4z"></path><path d="M6 8.013H4C4 3.668 6.364 1 10 1c1.962 0 3.689.873 4.776 2.48C15.58 4.668 16 6.202 16 8h-2c0-1.417-.313-2.56-.88-3.4C12.413 3.557 11.312 3 10 3 7.526 3 6 4.723 6 8.013z"></path></svg>