<?xml version="1.0" standalone="no"?><!DOCTYPE svg PUBLIC "-//W3C//DTD SVG 1.1//EN" "http://www.w3.org/Graphics/SVG/1.1/DTD/svg11.dtd">
<svg xmlns="http://www.w3.org/2000/svg" class="svg-icon icon" viewBox="0 0 20 20" aria-hidden="true"><path d="M10 20C4.477 20 0 15.523 0 10S4.477 0 10 0s10 4.477 10 10-4.477 10-10 10zm0-2a8 8 0 1 0 0-16 8 8 0 0 0 0 16z" fill="#5B6B73"></path><path d="M7 13.19V6.81a1 1 0 0 1 1.533-.846l4.898 3.082c.362.229.569.575.569.954 0 .383-.207.725-.58.962l-4.888 3.074A1 1 0 0 1 7 13.19z" class="fore"></path></svg>