<?xml version="1.0" standalone="no"?><!DOCTYPE svg PUBLIC "-//W3C//DTD SVG 1.1//EN" "http://www.w3.org/Graphics/SVG/1.1/DTD/svg11.dtd">
<svg class="icon" width="21px" height="20px" viewBox="0 0 21 20" version="1.1" xmlns="http://www.w3.org/2000/svg"><defs><clipPath id="clipPath4"><rect x="0" y="6.5" width="21" height="14"></rect></clipPath></defs><style>#svg-line{fill:currentColor;}</style><g id="svg-line" fill="#EB5648" fill-rule="nonzero"><g id="cloud"><path d="M15.0905356,13.7302959 C15.0905356,13.1920445 15.5311409,12.7554211 16.0742287,12.7554211 C17.7039717,12.7554211 18.9,11.4461278 18.9,9.83089287 C18.9,8.95973685 18.6389778,8.18047625 18.0293111,7.64431553 C17.9668095,7.58911581 17.90119,7.53675175 17.8336038,7.48693503 C17.7567599,7.43050971 17.6911404,7.38710931 17.6235303,7.34527095 C17.5292502,7.28829291 17.4647099,7.25313522 17.3991144,7.22004424 C17.3811986,7.21103252 17.3627311,7.2025495 17.3442876,7.19385019 C17.2843282,7.16534916 17.2228579,7.13819388 17.1603323,7.11327348 C17.1332067,7.1025075 17.1055294,7.09351981 17.0779002,7.0834988 C17.0215144,7.06321646 16.9652006,7.04346278 16.9077835,7.02654479 C16.8693616,7.01525011 16.830412,7.00679111 16.7914864,6.99698637 C16.7417921,6.98468237 16.6920978,6.97158535 16.6418998,6.96182868 C16.5886079,6.95130301 16.5343087,6.94435797 16.4799856,6.93719667 C16.44106,6.93157335 16.402614,6.92462834 16.3631848,6.92073527 C16.2683771,6.91174758 16.1715787,6.90612429 16.0742287,6.90612429 C16.0434815,6.90612429 16.0138136,6.91023362 15.9829945,6.91076232 C15.9533027,6.74415381 15.9154084,6.58014068 15.8707986,6.41973224 C15.8600539,6.38020086 15.845208,6.34276021 15.83336,6.30346917 C15.796497,6.18158279 15.7590824,6.06039331 15.7139929,5.94232788 C15.700658,5.9066415 15.6837734,5.87225282 15.6699108,5.83680675 C15.6212718,5.71696302 15.5710498,5.59759991 15.514688,5.48210585 C15.5008254,5.45384513 15.4849722,5.42717046 15.4711336,5.39967874 C15.4091356,5.27853732 15.345099,5.15871763 15.2748986,5.04291114 C14.3014706,3.43486158 12.5298637,2.50133819 10.5,2.50133819 C8.46963258,2.50133819 6.69845747,3.43486155 5.72500547,5.04291114 C5.65480507,5.15866956 5.59076848,5.27853732 5.52877052,5.39967874 C5.5149559,5.42717046 5.49907866,5.45384513 5.48524003,5.48210585 C5.42885426,5.59759993 5.37868029,5.71693899 5.32999329,5.83680675 C5.31617866,5.87225282 5.29927012,5.90661747 5.28595915,5.94232788 C5.24086971,6.06036927 5.20345509,6.18155874 5.16659208,6.30346917 C5.15481607,6.34276024 5.13997012,6.38020089 5.12920144,6.41973224 C5.08463965,6.58016471 5.04672136,6.74417784 5.01700552,6.91076232 C4.98625835,6.91023362 4.95656648,6.90612429 4.92581934,6.90612429 C4.8279417,6.90612429 4.73164699,6.91174761 4.63633561,6.92073527 C4.59688235,6.92460429 4.55898806,6.93152528 4.52003845,6.93719667 C4.46573927,6.94438202 4.41141609,6.95127896 4.35814821,6.96182868 C4.30742259,6.97156133 4.25825595,6.98468237 4.20856162,6.99698637 C4.16961204,7.00676709 4.13068643,7.01525011 4.09224049,7.02654479 C4.0348474,7.0434868 3.97853358,7.06321643 3.9221478,7.0834988 C3.89447058,7.09354385 3.86681733,7.1025075 3.83966773,7.11327348 C3.7771661,7.13819388 3.7156718,7.16534916 3.65523277,7.19385019 C3.63731691,7.20257353 3.61884942,7.21105655 3.60093359,7.22004424 C3.5348344,7.25313525 3.47079783,7.28829293 3.40779253,7.32602194 C3.30890759,7.38710931 3.24333605,7.43050971 3.1792515,7.47720239 C3.09883402,7.53672772 3.03326248,7.58911581 2.9702332,7.64426748 C2.36104624,8.18047625 2.1,8.95971283 2.1,9.83089287 C2.1,11.4461278 3.29610026,12.7554211 4.9258433,12.7554211 C5.46893109,12.7554211 5.90953636,13.1920205 5.90953636,13.7302959 C5.90953636,14.2687877 5.46893109,14.7051227 4.9258433,14.7051227 C2.20946899,14.7051227 0.00742598437,12.5226066 0.00742598437,9.83089287 C0.00742598437,7.63477515 1.47324016,5.77903573 3.48770634,5.16941155 C4.58206038,2.38476906 7.30203223,0.407071165 10.5,0.407071165 C13.6979678,0.407071165 16.4179396,2.38476906 17.5128213,5.16941155 C19.5268078,5.77903573 20.992598,7.63477515 20.992598,9.83089287 C20.992622,12.5226066 18.790627,14.7051227 16.0742287,14.7051227 C15.5311409,14.7051227 15.0905356,14.2687877 15.0905356,13.7302959 Z" id="Shape"></path></g><g style="clip-path: url(&quot;#clipPath4&quot;);"><g id="arrow"><path d="M9.76892766 7.729978755C9.95182765 7.534124242 10.21006057 7.407071165 10.500047949999999 7.407071165C10.790011360000001 7.407071165 11.048244279999999 7.534124266 11.22860198 7.73226172L14.17860187 10.97585258C14.31950632 11.13063771 14.40963722 11.36461285 14.43014332 11.57894737C14.43014332 11.579283799999999 14.43168627 11.66551745 14.43477218 11.83764833C14.43477218 12.22879505 14.02489474 12.63157895 13.65 12.63157895C13.642820870000001 12.63157895 12.94282087 12.63157895 11.55 12.63157895L11.55 17.897368399999998C11.55 18.477267400000002 11.07989899 18.947368400000002 10.5 18.947368400000002L10.5 18.947368400000002C9.92010101 18.947368400000002 9.45 18.477267400000002 9.45 17.897368399999998L9.45 12.63157895C8.05717914 12.63157895 7.3571791399999995 12.63157895 7.35 12.63157895C7.0723178099999995 12.63157895 6.565251773 12.19659103 6.565251773 11.83764833C6.565251773 11.715472290000001 6.565251773 11.62222083 6.565251773 11.57894737C6.5653477030000005 11.328469850000001 6.660635086 11.152193709999999 6.817920445 10.979457270000001C6.819615289 10.97756682 7.80328436 9.89440731 9.76892766 7.729978755z" id="Shape"></path><path d="M9.76892766 21.269978755C9.95182765 21.074124242 10.21006057 20.947071164999997 10.500047949999999 20.947071164999997C10.790011360000001 20.947071164999997 11.048244279999999 21.074124266 11.22860198 21.27226172L14.17860187 24.51585258C14.31950632 24.67063771 14.40963722 24.90461285 14.43014332 25.11894737C14.43014332 25.119283799999998 14.43168627 25.20551745 14.43477218 25.37764833C14.43477218 25.76879505 14.02489474 26.171578949999997 13.65 26.171578949999997C13.642820870000001 26.171578949999997 12.94282087 26.171578949999997 11.55 26.171578949999997L11.55 31.437368399999997C11.55 32.0172674 11.07989899 32.4873684 10.5 32.4873684L10.5 32.4873684C9.92010101 32.4873684 9.45 32.0172674 9.45 31.437368399999997L9.45 26.171578949999997C8.05717914 26.171578949999997 7.3571791399999995 26.171578949999997 7.35 26.171578949999997C7.0723178099999995 26.171578949999997 6.565251773 25.73659103 6.565251773 25.37764833C6.565251773 25.25547229 6.565251773 25.16222083 6.565251773 25.11894737C6.5653477030000005 24.86846985 6.660635086 24.692193709999998 6.817920445 24.51945727C6.819615289 24.51756682 7.80328436 23.434407309999997 9.76892766 21.269978755z" id="Shape"></path><path d="M9.76892766 -5.810021244999999C9.95182765 -6.005875757999999 10.21006057 -6.1329288349999995 10.500047949999999 -6.1329288349999995C10.790011360000001 -6.1329288349999995 11.048244279999999 -6.005875733999999 11.22860198 -5.807738279999999L14.17860187 -2.5641474199999994C14.31950632 -2.409362289999999 14.40963722 -2.175387149999999 14.43014332 -1.9610526299999993C14.43014332 -1.9607162000000002 14.43168627 -1.8744825499999997 14.43477218 -1.7023516699999988C14.43477218 -1.3112049499999987 14.02489474 -0.9084210499999994 13.65 -0.9084210499999994C13.642820870000001 -0.9084210499999994 12.94282087 -0.9084210499999994 11.55 -0.9084210499999994L11.55 4.357368399999999C11.55 4.937267400000003 11.07989899 5.407368400000003 10.5 5.407368400000003L10.5 5.407368400000003C9.92010101 5.407368400000003 9.45 4.937267400000003 9.45 4.357368399999999L9.45 -0.9084210499999994C8.05717914 -0.9084210499999994 7.3571791399999995 -0.9084210499999994 7.35 -0.9084210499999994C7.0723178099999995 -0.9084210499999994 6.565251773 -1.3434089699999987 6.565251773 -1.7023516699999988C6.565251773 -1.8245277099999981 6.565251773 -1.9177791699999993 6.565251773 -1.9610526299999993C6.5653477030000005 -2.211530149999998 6.660635086 -2.3878062900000003 6.817920445 -2.560542729999998C6.819615289 -2.5624331799999993 7.80328436 -3.645592689999999 9.76892766 -5.810021244999999z" id="Shape"></path></g></g></g></svg>