<?xml version="1.0" standalone="no"?><!DOCTYPE svg PUBLIC "-//W3C//DTD SVG 1.1//EN" "http://www.w3.org/Graphics/SVG/1.1/DTD/svg11.dtd">
<svg xmlns="http://www.w3.org/2000/svg" class="svg-icon icon" viewBox="0 0 20 20" aria-hidden="true"><path d="M13 5.038V2.655a.686.686 0 0 1 1.17-.484l4.123 4.122a1 1 0 0 1 0 1.414L14.17 11.83A.686.686 0 0 1 13 11.345V9.052c-2.87.306-5.204 1.955-7 4.948 0-5.612 2.333-8.6 7-8.962zM15.943 19H3a2 2 0 0 1-2-2V4a2 2 0 0 1 2-2h4a1 1 0 1 1 0 2H4.2A1.2 1.2 0 0 0 3 5.2v10.6A1.2 1.2 0 0 0 4.2 17h10.6a1.2 1.2 0 0 0 1.2-1.2V15a1 1 0 0 1 2 0v1.943A2.057 2.057 0 0 1 15.943 19z"></path></svg>