<?xml version="1.0" standalone="no"?><!DOCTYPE svg PUBLIC "-//W3C//DTD SVG 1.1//EN" "http://www.w3.org/Graphics/SVG/1.1/DTD/svg11.dtd">
<svg xmlns="http://www.w3.org/2000/svg" class="svg-icon icon" viewBox="0 0 20 20" aria-hidden="true"><path d="M14.362 12.908a1.205 1.205 0 0 0 .019 1.74c.5.476 1.302.468 1.792-.018l3.224-3.195a2.008 2.008 0 0 0 0-2.87L16.173 5.37a1.295 1.295 0 0 0-1.792-.019 1.205 1.205 0 0 0-.019 1.74L17.296 10l-2.934 2.908zM5.638 12.908c.49.486.481 1.265-.019 1.74-.5.476-1.302.468-1.792-.018L.603 11.435a2.008 2.008 0 0 1 0-2.87L3.827 5.37a1.295 1.295 0 0 1 1.792-.019c.5.476.509 1.255.019 1.74L2.704 10l2.934 2.908z"></path><path d="M7 18.03L13.5 2" class="fore" stroke-width="2" stroke-linecap="round"></path></svg>