<?xml version="1.0" standalone="no"?><!DOCTYPE svg PUBLIC "-//W3C//DTD SVG 1.1//EN" "http://www.w3.org/Graphics/SVG/1.1/DTD/svg11.dtd">
<svg xmlns="http://www.w3.org/2000/svg" class="svg-icon icon" viewBox="0 0 20 20" aria-hidden="true"><g transform="translate(2 2)"><rect x="11" y="11" width="5" height="5" rx="1"></rect><rect width="5" height="5" rx="1"></rect><path d="M15 6.4V2.2A1.2 1.2 0 0 0 13.8 1H4v2h9v3.4a.6.6 0 0 0 .6.6h.8a.6.6 0 0 0 .6-.6zM1 9.6v4.2A1.2 1.2 0 0 0 2.2 15H12v-2H3V9.6a.6.6 0 0 0-.6-.6h-.8a.6.6 0 0 0-.6.6z"></path></g></svg>